<?xml version="1.0" encoding="iso-8859-1"?>
<!-- Uploaded to: SVG Repo, www.svgrepo.com, Generator: SVG Repo Mixer Tools -->
<svg fill="#000000" height="800px" width="800px" version="1.1" id="Layer_1" xmlns="http://www.w3.org/2000/svg" xmlns:xlink="http://www.w3.org/1999/xlink" 
	 viewBox="0 0 507.168 507.168" xml:space="preserve">
<g>
	<g>
		<path d="M475.007,35.66H283.951c-17.236,0-34.32,17.34-34.32,34.568v107.964c0,17.224,17.084,27.848,34.32,27.848h20.116
			l-0.036,45.84c0,1.6,0.96,3.9,2.444,4.512c0.492,0.204,1.004,0.732,1.516,0.732c1.032,0,2.044-1.892,2.804-2.652l46.956-48.432
			h117.248c17.236,0,28.212-10.624,28.212-27.848V70.224C503.215,53,492.239,35.66,475.007,35.66z M358.279,67.356h108.248
			c4.372,0,7.924,3.552,7.924,7.92c0,4.384-3.556,7.928-7.924,7.928H358.279c-4.376,0-7.924-3.548-7.924-7.928
			C350.351,70.908,353.903,67.356,358.279,67.356z M291.751,67.356h40.928c4.384,0,7.92,3.552,7.92,7.92
			c0,4.384-3.54,7.928-7.92,7.928h-40.928c-4.38,0-7.924-3.548-7.924-7.928C283.827,70.908,287.371,67.356,291.751,67.356z
			 M291.751,99.052h174.772c4.372,0,7.924,3.556,7.924,7.928s-3.556,7.92-7.924,7.92H291.751c-4.38,0-7.924-3.548-7.924-7.92
			S287.371,99.052,291.751,99.052z M283.827,138.676c0-4.368,3.548-7.92,7.924-7.92h108.924c4.376,0,7.924,3.556,7.924,7.92
			c0,4.384-3.552,7.92-7.924,7.92H291.751C287.371,146.6,283.827,143.06,283.827,138.676z M466.523,178.296H292.435
			c-4.38,0-7.924-3.54-7.924-7.92c0-4.368,3.548-7.92,7.924-7.92h174.088c4.372,0,7.924,3.556,7.924,7.92
			C474.451,174.756,470.895,178.296,466.523,178.296z M467.203,146.6h-40.932c-4.376,0-7.92-3.54-7.92-7.92
			c0-4.368,3.548-7.92,7.92-7.92h40.932c4.376,0,7.924,3.556,7.924,7.92C475.131,143.06,471.579,146.6,467.203,146.6z"/>
	</g>
</g>
<g>
	<g>
		<path d="M505.751,427.912L377.939,300.128c-1.488-1.488-4.12-1.488-5.604,0l-45.768,45.756c-0.744,0.748-1.16,1.748-1.16,2.8
			s0.416,2.06,1.16,2.804l11.78,11.772l-27.092,27.076C250.419,342.264,164.483,256.28,116.543,195.52l27.008-27l11.78,11.772
			c1.548,1.548,4.056,1.548,5.6,0l45.764-45.756c0.744-0.744,1.164-1.752,1.164-2.804c0-1.04-0.42-2.056-1.164-2.796L78.887,1.164
			c-1.548-1.552-4.056-1.552-5.6,0L27.515,46.912c-0.744,0.748-1.156,1.756-1.156,2.8c0,1.052,0.416,2.06,1.156,2.8l11.52,11.52
			C26.243,85.136,8.247,114.736,6.207,117.748c-6.752,6.952-7.892,17.868-2.684,26.084
			C87.107,275.596,231.835,420.296,363.667,503.88c3.4,2.148,7.312,3.288,11.328,3.288c5.496,0,10.86-2.176,14.784-5.984
			c2.904-2.016,32.196-20.36,53.112-33.404l11.484,11.472c1.556,1.548,4.06,1.548,5.604,0l45.764-45.748
			c0.744-0.74,1.16-1.748,1.16-2.8S506.495,428.652,505.751,427.912z"/>
	</g>
</g>
</svg>